<?xml version="1.0" encoding="UTF-8"?>
<svg xmlns="http://www.w3.org/2000/svg" xmlns:xlink="http://www.w3.org/1999/xlink" viewBox="0 0 64 64" width="64px" height="64px">
<g id="surface45252810">
<path style=" stroke:none;fill-rule:nonzero;fill:#fff;fill-opacity:1;" d="M 28.300781 10.800781 C 17.050781 10.800781 7.898438 20.050781 7.898438 31.398438 C 7.898438 42.800781 17.050781 52 28.300781 52 C 33.449219 52 38.148438 50.050781 41.75 46.847656 L 42.898438 48 L 41.847656 49.097656 C 41.25 49.699219 41.25 50.648438 41.847656 51.25 L 50.847656 60.347656 C 51.148438 60.648438 51.5 60.800781 51.898438 60.800781 C 52.300781 60.800781 52.699219 60.648438 52.949219 60.347656 L 56.949219 56.300781 C 57.5 55.699219 57.5 54.75 56.898438 54.199219 L 47.898438 45.097656 C 47.601562 44.800781 47.25 44.648438 46.847656 44.648438 C 46.449219 44.648438 46.050781 44.800781 45.800781 45.097656 L 44.75 46.199219 L 43.597656 45 C 46.75 41.351562 48.699219 36.601562 48.699219 31.398438 C 48.699219 20.050781 39.550781 10.800781 28.300781 10.800781 Z M 28.300781 13.851562 C 37.898438 13.851562 45.699219 21.75 45.699219 31.449219 C 45.699219 41.148438 37.898438 49 28.300781 49 C 18.699219 49 10.898438 41.148438 10.898438 31.449219 C 10.898438 21.75 18.699219 13.851562 28.300781 13.851562 Z M 28.351562 20.097656 C 23.601562 20.097656 19.351562 23.148438 17.75 27.648438 C 17.5 28.300781 17.851562 29.101562 18.550781 29.300781 C 18.699219 29.351562 18.851562 29.398438 19 29.398438 C 19.550781 29.398438 20.050781 29.050781 20.25 28.5 C 21.449219 25.050781 24.75 22.699219 28.351562 22.699219 C 29.050781 22.699219 29.652344 22.101562 29.652344 21.398438 C 29.652344 20.699219 29.050781 20.097656 28.351562 20.097656 Z M 18.851562 32.449219 C 18.148438 32.449219 17.550781 33 17.550781 33.75 L 17.550781 33.949219 C 17.601562 34.648438 18.148438 35.25 18.902344 35.25 C 19.601562 35.25 20.199219 34.648438 20.199219 33.949219 L 20.199219 33.800781 C 20.199219 33.050781 19.652344 32.449219 18.902344 32.449219 Z M 46.902344 48.300781 L 53.800781 55.300781 L 51.902344 57.199219 L 45 50.199219 Z M 46.902344 48.300781 "/>
</g>
</svg>
